<svg height="511pt" viewBox="-16 1 511 511.99899" width="511pt" xmlns="http://www.w3.org/2000/svg"><path d="m438.765625 152.554688h-142.808594l-60.101562 60.105468-28.050781-28.046875h-182.957032c17.710938-43.355469 48.242188-80.0625 86.789063-105.625v-38.625h256.445312v38.625c28.691407 18.992188 52.8125 44.15625 70.683594 73.566407zm0 0" fill="#d9eef7"/><path d="m191.777344 78.988281v-38.625h-80.140625v38.625c-38.546875 25.5625-69.078125 62.269531-86.792969 105.625h80.140625c17.710937-43.355469 48.246094-80.058593 86.792969-105.625zm0 0" fill="#aac4da"/><path d="m392.125 8.304688v32.058593h-304.53125v-32.058593zm0 0" fill="#aac4da"/><path d="m438.765625 152.554688c21.238281 35.023437 33.5 76.214843 33.5 120.210937 0 128.382813-104.023437 232.402344-232.40625 232.402344s-232.402344-104.019531-232.402344-232.402344c0-31.253906 6.167969-60.988281 17.386719-88.152344h182.960938l28.046874 28.046875 60.105469-60.105468zm0 0" fill="#69f0f7"/><path d="m87.59375 272.765625c0-31.253906 6.171875-60.988281 17.390625-88.152344h-80.136719c-11.21875 27.164063-17.390625 56.898438-17.390625 88.152344 0 128.382813 104.019531 232.402344 232.402344 232.402344 13.671875 0 27.046875-1.246094 40.070313-3.511719-109.265626-18.988281-192.335938-114.179688-192.335938-228.890625zm0 0" fill="#1dbcc5"/><path d="m376.097656 304.820312v72.125h-8.015625l-24.039062-32.054687 24.039062-40.070313zm0 0" fill="#fbb040"/><path d="m271.914062 296.808594c35.421876 0 64.113282 21.554687 64.113282 48.082031s-28.691406 48.085937-64.113282 48.085937c-35.417968 0-64.109374-21.558593-64.109374-48.085937s28.691406-48.082031 64.109374-48.082031zm0 0" fill="#ffe451"/><path d="m240.472656 72.125h16.027344v15.136719h-16.027344zm0 0" fill="#fff"/><path d="m304.582031 72.125h16.03125v15.136719h-16.03125zm0 0" fill="#fff"/><path d="m152.320312 232.402344h16.027344v15.136718h-16.027344zm0 0" fill="#fff"/><path d="m232.457031 463.917969c-101.386719 0-183.875-82.488281-183.875-183.875h15.136719c0 93.039062 75.695312 168.738281 168.738281 168.738281zm0 0" fill="#fff"/><path d="m280.542969 448.78125h16.027343v15.136719h-16.027343zm0 0" fill="#fff"/><path d="m416.777344 255.554688h-67.246094l-20.90625-20.90625-4.878906 4.878906h-43.203125v-15.136719h36.933593l11.148438-11.148437 27.175781 27.175781h60.976563zm0 0" fill="#fff"/><g fill="#231f20"><path d="m272.527344 72.125h16.027344v15.136719h-16.027344zm0 0"/><path d="m445.84375 147.886719c-17.667969-29.078125-41.671875-54.472657-69.582031-73.660157v-27.035156h24.042969v-47.191406h-95.722657v15.136719h80.585938v16.917969h-289.394531v-16.917969h184.765624v-15.136719h-199.902343v47.191406h24.042969v27.039063c-38.777344 26.652343-68.546876 63.492187-86.214844 106.753906-11.921875 28.863281-17.964844 59.496094-17.964844 91.042969 0 61.921875 23.503906 120.699218 66.175781 165.5l10.960938-10.441406c-39.984375-41.972657-62-97.039063-62-155.058594 0-27.847656 5.023437-54.921875 14.949219-80.585938h97.691406v-15.132812h-91.234375c16.765625-35.746094 42.613281-66.296875 75.410156-89.046875h111.992187v-15.136719h-104.628906v-24.933594h241.308594v35.125l3.390625 2.246094c23.722656 15.703125 44.558594 36.171875 60.898437 59.6875h-131.980468l-56.96875 56.96875-24.914063-24.914062h-59.230469v15.136718h52.960938l31.183594 31.183594 63.238281-63.238281h135.363281c19.796875 34.09375 30.242188 72.941406 30.242188 112.640625 0 60.070312-23.382813 116.535156-65.84375 158.996094-42.457032 42.457031-98.921875 65.839843-158.992188 65.839843-53.777344 0-105.808594-19.273437-146.515625-54.265625l-9.867187 11.476563c43.449218 37.351562 98.988281 57.925781 156.382812 57.925781 64.113282 0 124.378906-24.957031 169.695313-70.277344 45.320312-45.316406 70.277343-105.582031 70.277343-169.695312 0-43.886719-11.964843-86.8125-34.601562-124.140625zm0 0"/><path d="m342.945312 354.492188 21.964844 29.285156h19.367188v-87.261719h-19.867188l-21.730468 36.214844c-6.804688-25.226563-35.671876-44.226563-70.152344-44.226563-39.523438 0-71.679688 24.964844-71.679688 55.648438 0 30.6875 32.15625 55.652344 71.679688 55.652344 34.972656 0 64.160156-19.550782 70.417968-45.3125zm26.195313-36.445313v46.144531l-15.382813-20.507812zm-153.15625 26.105469c0-22.339844 25.363281-40.515625 56.542969-40.515625 31.179687 0 56.542968 18.175781 56.542968 40.515625s-25.363281 40.515625-56.542968 40.515625c-31.179688 0-56.542969-18.175781-56.542969-40.515625zm0 0"/><path d="m240.472656 328.570312h16.027344v15.136719h-16.027344zm0 0"/><path d="m176.359375 296.515625h16.027344v15.136719h-16.027344zm0 0"/><path d="m160.332031 280.488281h16.027344v15.136719h-16.027344zm0 0"/><path d="m192.386719 256.445312h16.027343v15.136719h-16.027343zm0 0"/><path d="m248.484375 448.78125h16.027344v15.136719h-16.027344zm0 0"/><path d="m112.25 232.402344h-20.910156l-19.160156-19.160156-11.148438 11.148437h-12.894531v15.136719h19.164062l4.878907-4.882813 12.890624 12.894531h27.179688zm0 0"/></g></svg>