<svg height="511pt" viewBox="-5 1 511 511.999" width="511pt" xmlns="http://www.w3.org/2000/svg"><path d="m389.414062 224.351562v-96.480468c0-14.695313-11.914062-26.609375-26.609374-26.609375h-325.695313c-14.695313 0-26.609375 11.914062-26.609375 26.609375v206.992187c0 14.695313 11.914062 26.609375 26.609375 26.609375h202.289063l117.644531-117.644531c9.367187-9.367187 20.527343-15.851563 32.371093-19.476563zm-124.859374 21.808594c0 4.09375-3.316407 7.414063-7.414063 7.414063h-34.976563v34.976562c0 4.09375-3.316406 7.414063-7.414062 7.414063h-29.585938c-4.09375 0-7.414062-3.320313-7.414062-7.414063v-34.976562h-34.976562c-4.09375 0-7.414063-3.320313-7.414063-7.414063v-29.585937c0-4.097657 3.320313-7.414063 7.414063-7.414063h34.976562v-34.976562c0-4.09375 3.320312-7.414063 7.414062-7.414063h29.585938c4.097656 0 7.414062 3.320313 7.414062 7.414063v34.976562h34.976563c4.097656 0 7.414063 3.320313 7.414063 7.414063zm0 0" fill="#ff5a5a"/><path d="m257.140625 209.160156h-34.976563v-34.976562c0-4.09375-3.316406-7.414063-7.414062-7.414063h-29.585938c-4.09375 0-7.414062 3.320313-7.414062 7.414063v34.976562h-34.976562c-4.09375 0-7.414063 3.320313-7.414063 7.414063v29.585937c0 4.09375 3.320313 7.414063 7.414063 7.414063h34.976562v34.976562c0 4.09375 3.320312 7.414063 7.414062 7.414063h29.585938c4.097656 0 7.414062-3.320313 7.414062-7.414063v-34.976562h34.976563c4.097656 0 7.414063-3.320313 7.414063-7.414063v-29.585937c0-4.09375-3.320313-7.414063-7.414063-7.414063zm0 0" fill="#d7d7e6"/><path d="m135.578125 72.15625c0-6.707031-5.4375-12.144531-12.144531-12.144531h-42.589844c-6.707031 0-12.144531 5.4375-12.144531 12.144531v29.105469h66.878906zm0 0" fill="#89e6ff"/><path d="m331.214844 72.15625c0-6.707031-5.4375-12.144531-12.144532-12.144531h-42.589843c-6.710938 0-12.144531 5.4375-12.144531 12.144531v29.105469h66.878906zm0 0" fill="#89e6ff"/><path d="m467.742188 243.828125c-21.199219-21.199219-51.53125-27.683594-78.328126-19.476563-11.84375 3.625-23.003906 10.109376-32.371093 19.476563l-124.585938 124.585937c-30.570312 30.570313-30.570312 80.128907 0 110.699219 30.570313 30.570313 80.128907 30.570313 110.699219 0l124.585938-124.582031c30.566406-30.570312 30.566406-80.132812 0-110.703125zm-60.996094 126.304687-47.984375 47.988282c-10.054688 10.050781-26.351563 10.050781-36.40625 0l-28.90625-28.90625c-10.050781-10.050782-10.050781-26.351563 0-36.402344l47.988281-47.988281c10.054688-10.050781 26.351562-10.050781 36.402344 0l28.90625 28.90625c10.054687 10.050781 10.054687 26.351562 0 36.402343zm0 0" fill="#ffc868"/><path d="m377.839844 304.824219c-10.050782-10.054688-26.347656-10.054688-36.402344 0l-47.988281 47.984375c-10.050781 10.054687-10.050781 26.351562 0 36.40625l28.90625 28.902344c10.054687 10.054687 26.351562 10.054687 36.40625 0l47.984375-47.984376c10.054687-10.054687 10.054687-26.351562 0-36.40625zm0 0" fill="#d7d7e6"/><path d="m274.554688 246.160156v-29.585937c0-9.605469-7.8125-17.414063-17.414063-17.414063h-24.976563v-24.976562c0-9.605469-7.8125-17.417969-17.414062-17.417969h-29.585938c-9.601562 0-17.414062 7.816406-17.414062 17.417969v24.976562h-24.976562c-9.601563 0-17.414063 7.8125-17.414063 17.414063v29.585937c0 9.601563 7.8125 17.414063 17.414063 17.414063h24.976562v24.976562c0 9.605469 7.8125 17.414063 17.414062 17.414063h29.585938c9.601562 0 17.414062-7.8125 17.414062-17.414063v-24.976562h24.976563c9.601563 0 17.414063-7.8125 17.414063-17.414063zm-20-2.585937h-32.390626c-5.523437 0-10 4.476562-10 10v32.390625h-24.414062v-32.390625c0-5.523438-4.476562-10-10-10h-32.390625v-24.414063h32.390625c5.523438 0 10-4.476562 10-10v-32.390625h24.414062v32.390625c0 5.523438 4.476563 10 10 10h32.390626zm0 0"/><path d="m399.414062 211.902344v-84.03125c0-20.1875-16.421874-36.609375-36.609374-36.609375h-21.589844v-19.105469c0-12.210938-9.933594-22.144531-22.144532-22.144531h-11.292968v-30.230469c-.003906-10.910156-8.875-19.78125-19.78125-19.78125h-176.078125c-10.90625 0-19.777344 8.871094-19.777344 19.78125v30.230469h-11.296875c-12.210938 0-22.144531 9.933593-22.144531 22.144531v19.105469h-21.589844c-20.1875 0-36.609375 16.421875-36.609375 36.609375v206.992187c0 20.183594 16.421875 36.609375 36.609375 36.609375h179.570313c-25.414063 34.519532-22.511719 83.492188 8.707031 114.710938 17.210937 17.210937 39.8125 25.816406 62.421875 25.816406 22.601562 0 45.210937-8.609375 62.421875-25.816406l124.585937-124.582032c34.417969-34.421874 34.417969-90.425781 0-124.84375-20.515625-20.511718-48.695312-28.792968-75.402344-24.855468zm-80.34375-141.890625c1.183594 0 2.144532.964843 2.144532 2.144531v19.105469h-46.878906v-19.105469c0-1.179688.960937-2.144531 2.144531-2.144531zm-206.929687-50.011719h175.632813v30.011719h-11.292969c-12.210938 0-22.148438 9.933593-22.148438 22.144531v19.105469h-108.75v-19.105469c0-12.210938-9.9375-22.144531-22.148437-22.144531h-11.292969zm-33.441406 52.15625c0-1.179688.960937-2.144531 2.144531-2.144531h42.589844c1.183594 0 2.144531.964843 2.144531 2.144531v19.105469h-46.878906zm-41.589844 279.3125c-9.160156 0-16.609375-7.449219-16.609375-16.605469v-4.824219h92.074219c5.523437 0 10-4.480468 10-10.003906 0-5.519531-4.476563-10-10-10h-92.074219v-182.164062c0-9.160156 7.453125-16.609375 16.609375-16.609375h325.695313c9.15625 0 16.605468 7.449219 16.605468 16.609375v9.140625h-109.824218c-5.523438 0-10 4.476562-10 10 0 5.523437 4.476562 10 10 10h109.828124v60.289062c-10.726562 4.304688-20.769531 10.785157-29.445312 19.457031l-114.710938 114.710938zm423.558594-4.011719-124.582031 124.585938c-26.621094 26.621093-69.9375 26.621093-96.554688 0-26.621094-26.621094-26.621094-69.9375 0-96.558594l124.582031-124.582031c4.648438-4.648438 9.8125-8.46875 15.300781-11.492188 6.320313-3.484375 13.074219-5.910156 20-7.238281 4.285157-.824219 8.628907-1.234375 12.976563-1.234375 17.480469 0 34.96875 6.65625 48.277344 19.964844 26.621093 26.621094 26.621093 69.933594 0 96.554687zm0 0"/><path d="m399.414062 312.253906-14.5-14.5c-1.703124-1.703125-3.542968-3.210937-5.5-4.511718-5.8125-3.875-12.632812-5.957032-19.773437-5.957032-9.550781 0-18.523437 3.71875-25.273437 10.46875l-47.988282 47.984375c-1.78125 1.78125-3.328125 3.703125-4.652344 5.730469-3.949218 6.046875-5.878906 13.035156-5.789062 20.003906.117188 8.996094 3.589844 17.960938 10.441406 24.8125l28.90625 28.90625c6.96875 6.96875 16.121094 10.453125 25.273438 10.453125 9.152344-.003906 18.304687-3.488281 25.273437-10.453125l47.984375-47.984375c13.9375-13.9375 13.9375-36.613281 0-50.550781zm.261719 50.808594-47.984375 47.984375c-6.140625 6.140625-16.125 6.136719-22.261718 0l-28.90625-28.902344c-2.953126-2.953125-4.46875-6.796875-4.582032-10.671875-.121094-4.183594 1.394532-8.40625 4.582032-11.589844l8.410156-8.414062 39.574218-39.574219c2.976563-2.972656 6.925782-4.609375 11.132813-4.609375 4.203125 0 8.15625 1.636719 11.128906 4.609375l28.90625 28.90625c6.136719 6.136719 6.136719 16.125 0 22.261719zm0 0"/><path d="m426.898438 251.609375c-.25-.597656-.5625-1.179687-.921876-1.71875-.359374-.550781-.777343-1.0625-1.238281-1.523437-.460937-.457032-.972656-.878907-1.519531-1.25-.542969-.359376-1.121094-.660157-1.730469-.910157-.601562-.25-1.230469-.449219-1.871093-.578125-3.25-.648437-6.699219.410156-9.019532 2.738282-.460937.460937-.882812.972656-1.25 1.523437-.363281.539063-.671875 1.121094-.921875 1.71875-.25.609375-.441406 1.242187-.570312 1.871094-.128907.648437-.1875 1.308593-.1875 1.960937 0 .648438.058593 1.308594.1875 1.949219.128906.640625.320312 1.269531.570312 1.871094.25.609375.558594 1.1875.921875 1.726562.367188.550781.789063 1.0625 1.25 1.523438 1.859375 1.859375 4.4375 2.929687 7.070313 2.929687.648437 0 1.308593-.070312 1.949219-.199218.640624-.132813 1.269531-.320313 1.871093-.570313.609375-.25 1.1875-.5625 1.730469-.921875.546875-.359375 1.058594-.777344 1.519531-1.238281.460938-.460938.878907-.972657 1.238281-1.519531.359376-.542969.671876-1.121094.921876-1.730469.25-.601563.4375-1.230469.570312-1.871094.128906-.640625.199219-1.300781.199219-1.949219 0-.648437-.070313-1.3125-.199219-1.960937-.132812-.628907-.320312-1.261719-.570312-1.871094zm0 0"/><path d="m439.046875 301.902344c-2.636719 0-5.207031 1.070312-7.078125 2.933594-1.859375 1.867187-2.929688 4.4375-2.929688 7.078124 0 .652344.070313 1.300782.199219 1.949219.128907.640625.320313 1.273438.570313 1.871094.25.601563.558594 1.179687.917968 1.730469.363282.539062.78125 1.0625 1.242188 1.519531 1.871094 1.859375 4.441406 2.929687 7.078125 2.929687 2.632813 0 5.203125-1.070312 7.074219-2.929687.457031-.457031.867187-.980469 1.238281-1.519531.359375-.550782.671875-1.128906.921875-1.730469s.4375-1.230469.566406-1.871094c.132813-.648437.191406-1.296875.191406-1.949219 0-2.640624-1.058593-5.210937-2.917968-7.078124-1.871094-1.863282-4.441406-2.933594-7.074219-2.933594zm0 0"/><path d="m267.84375 408.363281c-.257812-.601562-.558594-1.183593-.917969-1.722656-.371093-.550781-.789062-1.058594-1.25-1.519531-.460937-.46875-.972656-.878906-1.519531-1.25-.542969-.359375-1.121094-.667969-1.722656-.917969-.609375-.25-1.238282-.441406-1.871094-.570313-1.289062-.261718-2.617188-.261718-3.910156 0-.636719.128907-1.269532.320313-1.867188.570313-.613281.25-1.191406.558594-1.730468.917969-.550782.371094-1.0625.78125-1.519532 1.25-.460937.460937-.882812.96875-1.242187 1.519531-.359375.539063-.667969 1.121094-.917969 1.722656-.25.609375-.453125 1.230469-.570312 1.871094-.132813.648437-.203126 1.308594-.203126 1.957031 0 .652344.070313 1.3125.203126 1.949219.117187.644531.320312 1.273437.570312 1.871094.25.601562.558594 1.191406.917969 1.730469.359375.550781.78125 1.058593 1.242187 1.519531.457032.460937.96875.882812 1.519532 1.242187.539062.359375 1.117187.667969 1.730468.917969.597656.25 1.230469.441406 1.867188.570313.640625.128906 1.300781.199218 1.953125.199218 2.628906 0 5.210937-1.070312 7.070312-2.929687.460938-.460938.878907-.96875 1.25-1.519531.359375-.539063.660157-1.128907.917969-1.730469.25-.601563.441406-1.230469.570312-1.871094.132813-.640625.191407-1.300781.191407-1.949219 0-.648437-.058594-1.308594-.191407-1.960937-.128906-.636719-.320312-1.257813-.570312-1.867188zm0 0"/><path d="m291.765625 450.234375c-.25-.609375-.558594-1.1875-.917969-1.726563-.371094-.550781-.78125-1.0625-1.25-1.523437-1.859375-1.859375-4.441406-2.929687-7.070312-2.929687-2.632813 0-5.203125 1.070312-7.070313 2.929687-.460937.460937-.882812.972656-1.242187 1.523437-.359375.539063-.667969 1.117188-.917969 1.726563-.25.601563-.441406 1.230469-.570313 1.871094-.132812.640625-.203124 1.300781-.203124 1.949219 0 2.632812 1.070312 5.210937 2.933593 7.070312.457031.460938.96875.882812 1.519531 1.25.539063.351562 1.128907.660156 1.730469.910156.597657.25 1.230469.449219 1.867188.570313.640625.128906 1.300781.199219 1.953125.199219.660156 0 1.308594-.070313 1.957031-.199219.632813-.121094 1.261719-.320313 1.871094-.570313.601562-.25 1.179687-.558594 1.722656-.910156.546875-.367188 1.058594-.789062 1.519531-1.25 1.871094-1.859375 2.929688-4.4375 2.929688-7.070312 0-.648438-.058594-1.308594-.191406-1.949219-.128907-.640625-.320313-1.269531-.570313-1.871094zm0 0"/><path d="m362.195312 351.46875h-2.097656v-2.097656c0-5.519532-4.476562-10-10-10-5.523437 0-10 4.480468-10 10v2.097656h-2.097656c-5.523438 0-10 4.480469-10 10.003906 0 5.519532 4.476562 10 10 10h2.097656v2.097656c0 5.519532 4.476563 10 10 10 5.523438 0 10-4.480468 10-10v-2.097656h2.097656c5.523438 0 10-4.480468 10-10 0-5.523437-4.476562-10.003906-10-10.003906zm0 0"/><path d="m161.804688 316.214844c-.25-.609375-.558594-1.191406-.917969-1.730469-.359375-.550781-.78125-1.058594-1.242188-1.519531-.457031-.460938-.96875-.878906-1.519531-1.238282-.539062-.363281-1.117188-.671874-1.71875-.921874-.609375-.25-1.242188-.441407-1.878906-.570313-1.292969-.257813-2.613282-.257813-3.902344 0-.640625.128906-1.269531.320313-1.878906.570313-.601563.25-1.179688.558593-1.722656.921874-.546876.359376-1.058594.777344-1.519532 1.238282-.457031.460937-.878906.96875-1.238281 1.519531-.359375.539063-.671875 1.121094-.921875 1.730469-.25.601562-.4375 1.230468-.570312 1.871094-.128907.640624-.199219 1.296874-.199219 1.949218 0 .648438.070312 1.308594.199219 1.949219.132812.640625.320312 1.269531.570312 1.878906.25.601563.5625 1.183594.921875 1.722657.359375.550781.78125 1.058593 1.238281 1.519531.460938.460937.972656.878906 1.519532 1.238281.542968.363281 1.121093.671875 1.722656.921875.609375.25 1.238281.449219 1.878906.570313.640625.128906 1.300781.199218 1.949219.199218.652343 0 1.3125-.070312 1.953125-.199218.636718-.121094 1.269531-.320313 1.878906-.570313.601562-.25 1.179688-.558594 1.71875-.921875.550781-.359375 1.0625-.777344 1.519531-1.238281.460938-.460938.882813-.96875 1.242188-1.519531.359375-.539063.667969-1.121094.917969-1.722657.25-.609375.453124-1.238281.570312-1.878906.132812-.640625.203125-1.300781.203125-1.949219 0-.652344-.070313-1.3125-.203125-1.949218-.117188-.640626-.320312-1.269532-.570312-1.871094zm0 0"/></svg>