<?xml version="1.0" encoding="iso-8859-1"?>
<!-- Generator: Adobe Illustrator 19.0.0, SVG Export Plug-In . SVG Version: 6.00 Build 0)  -->
<svg version="1.1" id="Layer_1" xmlns="http://www.w3.org/2000/svg" xmlns:xlink="http://www.w3.org/1999/xlink" x="0px" y="0px"
	 viewBox="0 0 512 512" style="enable-background:new 0 0 512 512;" xml:space="preserve">
<polygon style="fill:#CFDCE5;" points="0,0 0,394.672 92.789,385.383 92.789,359.431 112.012,359.431 112.012,512 195.188,512 
	195.188,359.431 214.412,359.431 214.412,512 297.587,512 297.587,359.431 316.811,359.431 316.811,393.914 399.989,409.529 
	399.989,359.431 419.213,359.431 419.213,512 512,512 512,0 "/>
<g>
	<rect x="221.52" y="55.71" style="fill:#415E72;" width="167.118" height="19.224"/>
	<rect x="123.365" y="55.71" style="fill:#415E72;" width="66.118" height="19.224"/>
	<rect x="371.452" y="140.294" style="fill:#415E72;" width="69.846" height="19.224"/>
	<rect x="70.705" y="140.294" style="fill:#415E72;" width="268.721" height="19.224"/>
	<rect x="197.171" y="192.672" style="fill:#415E72;" width="244.128" height="19.224"/>
	<rect x="70.705" y="192.672" style="fill:#415E72;" width="94.427" height="19.224"/>
	<rect x="306.105" y="245.063" style="fill:#415E72;" width="135.193" height="19.224"/>
	<rect x="70.705" y="245.063" style="fill:#415E72;" width="203.361" height="19.224"/>
</g>
<g>
</g>
<g>
</g>
<g>
</g>
<g>
</g>
<g>
</g>
<g>
</g>
<g>
</g>
<g>
</g>
<g>
</g>
<g>
</g>
<g>
</g>
<g>
</g>
<g>
</g>
<g>
</g>
<g>
</g>
</svg>
