<?xml version="1.0" encoding="iso-8859-1"?>
<!-- Generator: Adobe Illustrator 16.0.0, SVG Export Plug-In . SVG Version: 6.00 Build 0)  -->
<!DOCTYPE svg PUBLIC "-//W3C//DTD SVG 1.1//EN" "http://www.w3.org/Graphics/SVG/1.1/DTD/svg11.dtd">
<svg version="1.1" id="Capa_1" xmlns="http://www.w3.org/2000/svg" xmlns:xlink="http://www.w3.org/1999/xlink" x="0px" y="0px"
	 width="106.053px" height="106.053px" viewBox="0 0 106.053 106.053" style="enable-background:new 0 0 106.053 106.053;"
	 xml:space="preserve">
<g>
	<path style="fill:#010002;" d="M53.037,54c-9.582,0-17.344,7.754-17.344,17.328c0,9.58,7.767,17.342,17.344,17.342
		c9.569,0,17.326-7.767,17.326-17.342C70.363,61.754,62.606,54,53.037,54z M53.037,85.584c-7.878,0-14.268-6.379-14.268-14.256
		c0-7.87,6.39-14.252,14.268-14.252c7.86,0,14.25,6.377,14.25,14.252C67.287,79.205,60.897,85.584,53.037,85.584z M84.84,0H21.212
		C9.545,0,0.002,9.543,0.002,21.21v63.634c0,11.666,9.543,21.209,21.209,21.209H84.84c11.667,0,21.21-9.543,21.21-21.209V21.21
		C106.05,9.543,96.507,0,84.84,0z M35.066,14.714c0-0.806,0.663-1.458,1.471-1.458h32.977c0.808,0,1.471,0.652,1.471,1.458v16.842
		c0,0.805-0.663,1.458-1.471,1.458h-3.821c0,0.031,0.041,0.052,0.041,0.085l-1.532,15.154c0,0.725-0.58,1.315-1.315,1.315H43.17
		c-0.717,0-1.326-0.59-1.326-1.315l-1.522-15.154c0-0.034,0.042-0.055,0.042-0.085h-3.822c-0.808,0-1.47-0.652-1.47-1.458V14.714
		H35.066z M86.156,87.003c0,3.21-2.589,5.789-5.789,5.789H25.688c-3.203,0-5.792-2.579-5.792-5.789V56.618
		c0-3.19,2.589-5.779,5.792-5.779h3c0.27-0.735,1.499-1.305,3.053-1.305s2.786,0.569,3.055,1.305h45.57
		c3.2,0,5.789,2.589,5.789,5.779V87.003z M37.272,30.24V16.019c0-0.673,0.541-1.229,1.232-1.229h29.041
		c0.684,0,1.232,0.557,1.232,1.229V30.24c0,0.684-0.554,1.24-1.232,1.24H38.509C37.813,31.485,37.272,30.924,37.272,30.24z"/>
</g>
<g>
</g>
<g>
</g>
<g>
</g>
<g>
</g>
<g>
</g>
<g>
</g>
<g>
</g>
<g>
</g>
<g>
</g>
<g>
</g>
<g>
</g>
<g>
</g>
<g>
</g>
<g>
</g>
<g>
</g>
</svg>
